<?xml version="1.0" encoding="utf-8"?>
<!-- Generator: Adobe Illustrator 25.2.1, SVG Export Plug-In . SVG Version: 6.00 Build 0)  -->
<svg version="1.1" id="Layer_1" xmlns="http://www.w3.org/2000/svg" xmlns:xlink="http://www.w3.org/1999/xlink" x="0px" y="0px"
	 viewBox="0 0 640 512" style="enable-background:new 0 0 640 512;" xml:space="preserve">
<style type="text/css">
	.st0{fill:#B8B8B8;}
</style>
<path class="st0" d="M543.7,200.1C539.7,142.1,491.4,96,432,96c-7.6,0-15.1,0.8-22.4,2.3C377.7,58.3,328.1,32,272,32
	c-84.6,0-155.5,59.7-172.3,139.8C39.9,196.1,0,254.4,0,320c0,88.4,71.6,160,160,160h336c79.5,0,144-64.5,144-144
	C640,274.2,600.8,220.2,543.7,200.1z M496,432H160c-61.9,0-112-50.1-112-112c0-56.4,41.7-103.1,96-110.9V208
	c0-70.7,57.3-128,128-128c53.5,0,99.3,32.8,118.4,79.4c11.2-9.6,25.7-15.4,41.6-15.4c35.3,0,64,28.7,64,64c0,11.8-3.2,22.9-8.8,32.4
	c2.9-0.3,5.9-0.4,8.8-0.4c53,0,96,43,96,96S549,432,496,432z M296.5,150.5c-4.7-4.7-12.3-4.7-17,0l-104,104c-4.7,4.7-4.7,12.3,0,17
	l16.9,16.9c4.7,4.7,12.4,4.7,17.1-0.1l54.5-55.8V372c0,6.6,5.4,12,12,12h24c6.6,0,12-5.4,12-12V232.5l54.5,55.8
	c4.7,4.8,12.3,4.8,17.1,0.1l16.9-16.9c4.7-4.7,4.7-12.3,0-17L296.5,150.5z"/>
</svg>
