<?xml version="1.0" encoding="UTF-8" standalone="no"?>
<svg width="718px" height="178px" viewBox="0 0 718 178" version="1.1" xmlns="http://www.w3.org/2000/svg" xmlns:xlink="http://www.w3.org/1999/xlink">
    <!-- Generator: Sketch 50.2 (55047) - http://www.bohemiancoding.com/sketch -->
    <title>WERNER</title>
    <desc>Created with Sketch.</desc>
    <defs></defs>
    <g id="Symbols" stroke="none" stroke-width="1" fill="none" fill-rule="evenodd">
        <g id="werner-solid" fill="#F1AA00" fill-rule="nonzero">
            <path d="M124.959854,105.857058 L140.025076,18.2175241 L162.940914,20.7004668 L139.189063,163.977562 L115.274524,166.499949 L89.284314,64.715363 L62.0862955,173.030769 L38.6335931,177.517592 L0.000248174545,3.52120563 L23.433095,5.90024013 L50.6983871,120.324599 L77.4233433,11.6565327 L101.561495,14.1623016 L124.959854,105.857058 Z M265.76805,128.508242 L265.966877,151.987672 L179.838024,157.762017 L179.682956,20.7601155 L264.568474,26.9096388 L264.827455,49.4922721 L202.369538,46.0964611 L202.562188,78.9264709 L265.158007,78.1373345 L265.19391,100.881012 L202.691469,101.507906 L202.880179,133.881633 L265.76805,128.508242 Z M381.826189,149.290406 L355.800589,149.784396 L341.664857,107.524262 L314.283067,107.785962 L314.740247,149.83656 L290.285749,150.818663 L289.3907,27.0514591 L291.930294,27.0730907 L364.398072,27.6905424 C364.546009,27.6936244 364.669606,27.6969894 364.906051,27.7039944 C365.083999,27.7092792 365.160191,27.7114654 365.341156,27.7176346 C365.707754,27.7413882 365.826873,27.7511605 365.929813,27.7620156 C366.498366,27.8179601 367.044042,27.9096997 367.532622,28.0317532 C368.122064,28.1663707 368.68981,28.3442774 369.185965,28.5480663 C369.972386,28.8499624 370.721542,29.2222198 371.432678,29.6666821 C372.125713,30.1010489 372.779754,30.6100932 373.396916,31.1888597 C374.023032,31.7797727 374.574729,32.4156745 375.037765,33.0791398 C375.528064,33.7600414 375.946233,34.4855774 376.297464,35.2680186 C376.521633,35.7750053 376.711374,36.2837014 376.852607,36.7661328 C377.014014,37.298898 377.141342,37.8541484 377.219354,38.3334694 C377.291279,38.6818107 377.343138,39.0455414 377.361408,39.3014475 C377.394023,39.5831255 377.406,39.8624715 377.405999,40.1809296 L377.365,93.3 C377.365,93.6516915 377.354872,93.9411984 377.325547,94.2362967 C377.315198,94.4547613 377.29628,94.6350789 377.256983,94.9561095 C377.143222,95.7715315 377.016457,96.3730551 376.853725,96.9533616 C376.688617,97.547509 376.474213,98.1311294 376.211432,98.7220525 C375.828544,99.5879309 375.362971,100.403149 374.833219,101.129855 C374.298865,101.878916 373.68706,102.56712 372.962239,103.236558 C372.256025,103.866562 371.512899,104.41146 370.775538,104.833544 C369.965493,105.3223 369.104902,105.71885 368.197669,106.021673 C367.597138,106.221035 367.026627,106.375792 366.430071,106.490663 L381.826189,149.290406 Z M348.639682,83.9688905 C348.959361,83.8893937 349.233971,83.8061841 349.443959,83.7274518 C349.826133,83.5761899 350.219335,83.379975 350.548355,83.1820649 C350.901638,82.9590172 351.217618,82.7172069 351.507548,82.4463888 C351.810068,82.1656849 352.05999,81.8813781 352.296185,81.5404355 C352.533735,81.2114649 352.728244,80.8780449 352.874996,80.5566424 C352.97815,80.3198233 353.06375,80.0860026 353.155128,79.7833575 C353.238672,79.5236757 353.301959,79.2645551 353.362641,78.9172671 C353.384499,78.8069126 353.401949,78.6802142 353.412557,78.5523365 C353.421636,78.4582974 353.425,78.38017 353.425248,78.3302294 L353.127773,57.2121698 C353.126354,57.1537195 353.126354,57.1537195 353.125074,57.0983599 C353.122914,57.0051901 353.122914,57.0051901 353.120658,56.9213453 C353.118063,56.8311149 353.115178,56.7605402 353.117648,56.7794955 C353.107522,56.6667327 353.107522,56.6667327 353.105726,56.6463002 C353.093058,56.5021718 353.087416,56.4452097 353.073201,56.3320856 C353.050598,56.1209314 353.007411,55.8940353 352.931045,55.5997568 C352.883304,55.4037964 352.807855,55.1813036 352.691444,54.8990642 C352.545509,54.534949 352.369671,54.1943285 352.167084,53.8843715 C351.957681,53.5638558 351.722787,53.2709334 351.43139,52.9755926 C351.184241,52.7144914 350.900735,52.4728594 350.572113,52.2472936 C350.265644,52.0309219 349.948127,51.8532198 349.624936,51.71422 C349.274934,51.5677577 349.100076,51.5024494 348.880779,51.4429953 C348.663408,51.3785891 348.412678,51.3197753 348.102855,51.2595548 C347.977258,51.2421439 347.83969,51.2257624 347.699367,51.2108707 C347.655935,51.2067588 347.603506,51.2040863 347.459457,51.1988452 C347.398212,51.196619 313.600997,50.8704413 313.600997,50.8704413 L313.959188,84.5404142 L346.976763,84.095073 L348.006905,84.0648823 C348.294971,84.0333389 348.494463,84.0024963 348.639682,83.9688905 Z M428.108014,149.748403 L403.02488,149.380105 L404.521337,30.181473 L432.099921,28.4824071 L469.945896,103.576902 L468.79978,26.3627747 L492.710205,24.9466099 L494.383604,151.617936 L467.152092,150.533297 L427.175424,67.7320421 L428.108014,149.748403 Z M606.543292,137.796368 L606.638725,162.572633 L519.454788,153.347145 L517.962229,23.8301041 L606.418009,13.4949443 L606.49922,38.8227945 L541.613626,45.7135654 L542.121341,76.2811307 L606.585566,75.5285677 L606.522518,99.84766 L542.480518,99.7537275 L542.977783,131.504745 L606.543292,137.796368 Z M717.269069,177.201794 L691.664829,174.159606 L675.895095,107.871713 L650.627321,107.931955 L651.562453,169.256535 L627.97872,166.365257 L626.220384,9.79508164 L628.406158,9.49606927 L696.522904,0.177776391 C696.929249,0.120138928 697.331919,0.09 697.736,0.09 C698.243529,0.09 698.720253,0.107891594 699.20462,0.14965985 C700.062974,0.229180397 700.893995,0.352105804 701.706516,0.525468292 C702.474711,0.694590482 703.201231,0.897513083 703.921098,1.15016997 C705.063679,1.5605664 706.155137,2.0908199 707.221142,2.7539103 C708.280827,3.42610771 709.258668,4.19944789 710.105028,5.0370891 C710.966364,5.86737598 711.742299,6.80500127 712.4513,7.86268722 C713.133422,8.9057257 713.70508,9.99488756 714.153397,11.1145657 C714.47211,11.9044717 714.725596,12.7177741 714.927993,13.5800675 C715.114559,14.3695758 715.239098,15.1727015 715.29233,15.9617169 L715.334868,18.2053493 L716.038,86.744 C716.038,87.2154184 716.030052,87.5971985 716.011153,87.9160828 C715.995162,88.3318402 715.957851,88.7460265 715.902583,89.1820307 C715.811822,89.9701029 715.667534,90.7679311 715.469961,91.5986149 C715.275982,92.4007731 715.030194,93.1820706 714.73279,93.9497325 C714.292496,95.0999566 713.742596,96.2092174 713.086172,97.2742912 C712.453412,98.2938634 711.705799,99.2718628 710.844127,100.217199 C710.010353,101.112093 709.102179,101.925666 708.135211,102.641583 C707.150613,103.376357 706.091267,104.021114 704.966831,104.574096 C704.209283,104.946045 703.424185,105.266897 702.597664,105.544343 C701.994828,105.745597 701.363781,105.915144 700.716753,106.052129 L717.269069,177.201794 Z M686.337286,83.2477008 C686.66549,83.1989601 686.893053,83.1487338 687.095516,83.0912505 C687.402863,82.9941004 687.651656,82.9029248 687.857884,82.8114918 C688.24857,82.6364644 688.56734,82.4575 688.897481,82.2190303 C689.201279,82.0101266 689.49545,81.7612675 689.762529,81.4894448 C690.010801,81.2326113 690.253294,80.9240327 690.472754,80.5895723 C690.689759,80.2518446 690.870737,79.9042238 691.002483,79.5718789 C691.099621,79.326478 691.180556,79.0804379 691.250765,78.8147939 C691.309765,78.5953877 691.356427,78.3477734 691.395692,78.0443845 C691.410812,77.9303521 691.422679,77.8028718 691.431625,77.6559975 C691.436721,77.5670755 691.439,77.4542628 691.439238,77.3225112 L690.853,34.842 C690.853,34.5951049 690.846217,34.3698708 690.830327,34.1219362 C690.822971,33.9794905 690.810943,33.8340982 690.798793,33.7003819 C690.748477,33.3218095 690.676535,32.95864 690.599329,32.669675 C690.478927,32.2660728 690.347005,31.9016809 690.207738,31.5857462 C689.960358,31.0410258 689.675677,30.5447241 689.354473,30.0993472 C689.040498,29.6653441 688.673312,29.2628762 688.224486,28.8650027 C687.829634,28.506112 687.380956,28.1851736 686.854922,27.8875431 C686.41782,27.6335418 685.91111,27.4150352 685.379416,27.2429953 C685.014831,27.1327536 684.650488,27.0465648 684.36138,26.9958544 C683.948544,26.9380573 683.53889,26.9042755 683.112486,26.8953245 C682.898567,26.8874886 682.730145,26.8890568 682.542805,26.9026859 C682.379004,26.9123213 682.231499,26.9269225 682.11175,26.9446815 L649.366204,32.0042564 L650.176372,84.6468578 L685.701,83.313 C685.702917,83.313 685.730453,83.3112797 685.827635,83.3031334 C685.957007,83.2924364 686.023502,83.2875632 686.090968,83.2838455 C686.170078,83.2756541 686.248413,83.2641396 686.337286,83.2477008 Z" id="WERNER"></path>
        </g>
    </g>
</svg>
