<?xml version="1.0" encoding="utf-8"?>
<!-- Generator: Adobe Illustrator 24.0.3, SVG Export Plug-In . SVG Version: 6.00 Build 0)  -->
<svg version="1.1" id="Layer_1" xmlns="http://www.w3.org/2000/svg" xmlns:xlink="http://www.w3.org/1999/xlink" x="0px" y="0px"
	 viewBox="0 0 1639.3 346.6" style="enable-background:new 0 0 1639.3 346.6;" xml:space="preserve">
<style type="text/css">
	.st0{fill:#14345C;}
	.st1{fill-rule:evenodd;clip-rule:evenodd;fill:#F9B724;}
</style>
<path class="st0" d="M1245.9,98.5l3.6,13.2c-6-1.1-12.6-1.6-20-1.6H1199v125.6h30.4c10.8,0,20.1-1.2,27.8-3.5
	c7.8-2.3,14.2-6,19.2-11c0.7-0.7,1.3-1.3,1.9-2l4,14.8c-11.2,8.8-26.5,13.5-45.8,13.9h-51.9V97.9h51.9
	C1239.8,98,1242.9,98.2,1245.9,98.5L1245.9,98.5z M1361.2,244.4l-5.3-18.6c3.2,2.8,6.7,5.3,10.7,7.4c7.1,3.8,15.7,5.7,25.6,5.7
	c8.3,0,15.6-1.4,22.2-4.1c6.5-2.7,12-6.5,16.5-11.4c4.5-4.9,7.8-10.7,10.1-17.4c2.2-6.7,3.3-14.1,3.1-22.1h-51v-12.2h63.6v76.2
	h-10.3l-1.9-27.3h-0.4c-2.5,5.3-5.6,9.9-9.3,13.8c-3.7,3.9-7.8,7-12.3,9.5c-4.5,2.5-9.3,4.2-14.4,5.4s-10.4,1.7-15.9,1.7
	C1380.4,250.8,1370.1,248.7,1361.2,244.4L1361.2,244.4z M1329.6,133.6c2.6-5.5,5.7-10.6,9.5-15.2c5.9-7.2,13.3-12.9,22.2-17.2
	c8.9-4.3,19.2-6.4,31-6.4c7.8,0,15.3,1,22.3,3.1c7,2.1,13.2,5.2,18.7,9.4c5.5,4.2,10.1,9.4,13.9,15.5c3.8,6.2,6.4,13.4,7.8,21.6
	h-14.3c-0.4-4.3-1.9-8.7-4.3-13.1c-2.4-4.4-5.7-8.4-9.9-12.1c-4.1-3.6-9.1-6.6-14.8-8.9c-5.7-2.3-12.2-3.5-19.3-3.5
	c-9.9,0-18.5,1.9-25.6,5.7c-7.1,3.8-13,8.8-17.5,15c-4.5,6.2-7.9,13.3-10.1,21.1c-0.9,3.3-1.6,6.7-2.2,10.1L1329.6,133.6
	L1329.6,133.6z M1060.2,97.9h103.5v12.2h-89.2v54.2h83.6v12.2h-83.6v59.2h90.3v12.2h-104.6V97.9L1060.2,97.9z M1484.1,97.9h103.5
	v12.2h-89.2v54.2h83.6v12.2h-83.6v59.2h90.3v12.2h-104.6V97.9L1484.1,97.9z"/>
<polygon class="st1" points="1257.7,25.9 1267.7,25.9 1347.7,314.9 1337.7,314.9 1257.7,25.9 "/>
<path class="st0" d="M202.2,81.7l26.9,2.9l-30.1,181.3l-28.6,3L136,134.6L100,277.5L72,282.9L23,62.9l27.4,2.8l36,150.8l35.3-143.3
	l29,3L182,198.7L202.2,81.7L202.2,81.7z M361.8,223.1l0.2,27.5l-107.8,7.2l-0.2-173l106.2,7.7l0.3,26.4l-80-4.4l0.3,44.8l80.2-1
	l0,26.6l-80.1,0.8l0.3,44.2L361.8,223.1L361.8,223.1z M511,247l-30.8,0.6L462,193.4l-37.5,0.4l0.6,53.9l-28.9,1.2l-1.1-156l2,0
	l93.4,0.8c0.7,0,0.8,0,1.1,0c0.3,0,0.5,0,0.7,0.1c0.7,0.1,1.3,0.2,1.9,0.3c0.7,0.2,1.3,0.4,2,0.6c0.9,0.4,1.8,0.8,2.7,1.3
	c0.8,0.5,1.6,1.1,2.3,1.8c0.7,0.7,1.4,1.4,2,2.2c0.6,0.8,1.1,1.7,1.5,2.6c0.3,0.6,0.5,1.2,0.7,1.8c0.2,0.6,0.3,1.3,0.4,1.9
	c0.1,0.4,0.1,0.8,0.2,1.1c0,0.3,0,0.6,0,1l-0.1,68.1c0,0.4,0,0.8,0,1.1c0,0.2,0,0.4-0.1,0.8c-0.1,1-0.3,1.7-0.5,2.4
	c-0.2,0.7-0.5,1.4-0.8,2.1c-0.5,1-1,2-1.6,2.9c-0.6,0.9-1.4,1.7-2.2,2.5c-0.8,0.7-1.7,1.4-2.6,1.9c-1,0.6-2,1-3.1,1.4
	c-0.8,0.3-1.5,0.4-2.2,0.6c-0.5,0.1-0.9,0.1-1.4,0.2L511,247L511,247z M469.9,166.1c0.5-0.1,0.9-0.2,1.2-0.4
	c0.6-0.2,1.1-0.5,1.6-0.8c0.5-0.3,1-0.7,1.4-1.1c0.5-0.4,0.8-0.9,1.2-1.4c0.3-0.5,0.6-1,0.9-1.5c0.1-0.3,0.3-0.7,0.4-1.1
	c0.1-0.4,0.2-0.8,0.3-1.3c0-0.2,0.1-0.4,0.1-0.6c0-0.1,0-0.3,0-0.4l-0.4-27.2c0-0.1,0-0.1,0-0.2c0-0.3,0-0.4,0-0.5
	c0-0.1,0-0.1,0-0.2c0-0.2,0-0.3,0-0.4c0-0.3-0.1-0.7-0.2-1.1c-0.1-0.3-0.2-0.7-0.4-1.1c-0.2-0.6-0.5-1.1-0.8-1.5
	c-0.3-0.5-0.7-0.9-1.1-1.3c-0.4-0.4-0.8-0.8-1.3-1.1c-0.5-0.3-1-0.6-1.5-0.8c-0.5-0.2-0.8-0.3-1.1-0.4c-0.4-0.1-0.8-0.2-1.1-0.3
	c-0.2,0-0.4-0.1-0.7-0.1c-0.1,0-0.2,0-0.4,0c-0.1,0-45.1-0.4-45.1-0.4l0.5,46l43.9-0.6l1.4,0C469.3,166.2,469.6,166.1,469.9,166.1
	L469.9,166.1z M570.7,247.5l-29.7-0.4l1.9-150.6l33.5-2.1L627.2,195l-1.5-103.5l28.2-1.7l2.1,160l-32.9-1.3l-53.6-110.8L570.7,247.5
	L570.7,247.5z M799.9,234.6l0.1,29.3l-109.1-11.6L689,87.9l110.7-13l0.1,30l-83.1,8.9l0.7,41.8l82.5-1l-0.1,28.7l-82-0.1l0.7,43.3
	L799.9,234.6L799.9,234.6z M942,282.9l-30.2-3.6l-20.3-85.4l-34.8,0.1l1.2,78.7l-27.7-3.4L828,70.2l1.7-0.2l87.5-12
	c0.5-0.1,0.9-0.1,1.4-0.1c0.6,0,1.2,0,1.8,0.1c1.1,0.1,2.1,0.2,3.1,0.5c0.9,0.2,1.8,0.5,2.7,0.8c1.4,0.5,2.7,1.1,4,1.9
	c1.3,0.8,2.5,1.8,3.5,2.8c1,1,2,2.1,2.8,3.4c0.8,1.3,1.5,2.6,2.1,4c0.4,1,0.7,1.9,0.9,3c0.2,1,0.4,1.9,0.4,2.9l0,2.7l0.9,88.1
	c0,0.5,0,1,0,1.4c0,0.5-0.1,1-0.1,1.5c-0.1,1-0.3,1.9-0.5,3c-0.2,1-0.5,1.9-0.9,2.9c-0.5,1.4-1.2,2.8-2,4.1
	c-0.8,1.3-1.7,2.5-2.7,3.6c-1,1.1-2.1,2.1-3.3,3c-1.2,0.9-2.5,1.7-3.9,2.4c-0.9,0.5-1.9,0.9-2.9,1.2c-0.9,0.3-1.8,0.5-2.9,0.7
	l-0.6,0.1L942,282.9L942,282.9z M904.5,165c0.4,0,0.7-0.1,1.1-0.2c0.4-0.1,0.8-0.3,1.1-0.4c0.6-0.3,1.1-0.5,1.5-0.9
	c0.5-0.3,0.9-0.7,1.3-1.1c0.4-0.4,0.8-0.9,1.1-1.4c0.3-0.5,0.6-1,0.8-1.5c0.1-0.3,0.3-0.7,0.4-1.1c0.1-0.4,0.2-0.7,0.2-1.1
	c0-0.3,0-0.4,0.1-0.6c0-0.2,0-0.3,0-0.6l-0.8-54.7c0-0.3,0-0.6,0-1c0-0.2,0-0.4,0-0.7c-0.1-0.6-0.2-1.1-0.3-1.5
	c-0.2-0.6-0.4-1.1-0.6-1.6c-0.4-0.8-0.8-1.5-1.2-2.1c-0.5-0.6-1-1.2-1.6-1.8c-0.6-0.5-1.2-1-2-1.4c-0.6-0.4-1.4-0.7-2.2-0.9
	c-0.5-0.2-1-0.3-1.5-0.4c-0.6-0.1-1.2-0.1-1.8-0.1c-0.3,0-0.6,0-0.9,0c-0.3,0-0.5,0-0.7,0.1L855,96.6l1.1,70.2l47.2-1.8
	c0,0,0.1,0,0.3,0c0.1,0,0.2,0,0.2,0C904.1,165.1,904.2,165,904.5,165L904.5,165z"/>
</svg>
